<svg id="undraw_site_content_ihgn" xmlns="http://www.w3.org/2000/svg" width="435.553" height="382.734" viewBox="0 0 435.553 382.734">
  <path id="パス_956" data-name="パス 956" d="M112.826,152.657H27V96.205h78.89Z" transform="translate(-14.608 -52.051)" fill="#efefef"/>
  <circle id="楕円形_64" data-name="楕円形 64" cx="7.802" cy="7.802" r="7.802" transform="translate(57.141 53.72)" fill="#3f3d56"/>
  <path id="パス_957" data-name="パス 957" d="M314.45,90.474c.74-.839,1.506-1.675,2.277-2.483l.808.771c-.762.8-1.518,1.622-2.248,2.45Z" transform="translate(-227.729 -62.272)" fill="#3f3d56"/>
  <path id="パス_958" data-name="パス 958" d="M330.181,52.908c1.706-1.514,3.5-2.974,5.318-4.339l.67.893c-1.8,1.348-3.564,2.788-5.247,4.281Zm10.978-8.223c1.931-1.21,3.937-2.354,5.962-3.4l.513.992c-2,1.032-3.977,2.161-5.882,3.355Zm12.185-6.3c2.1-.874,4.267-1.672,6.439-2.372l.343,1.063c-2.143.691-4.281,1.479-6.353,2.341Zm13.306-3.126-.256-1.086c2.222-.523,4.489-.959,6.737-1.3l.166,1.1C371.079,34.317,368.843,34.748,366.65,35.263Zm13.377-2.011-.075-1.114c2.274-.152,4.582-.211,6.859-.175l-.018,1.116c-2.248-.036-4.524.022-6.767.172Zm13.526.217.11-1.111c2.268.225,4.556.549,6.8.962l-.2,1.1c-2.213-.408-4.47-.727-6.708-.949Zm41.84,147.1c1.783-1.366,3.532-2.824,5.2-4.336l.75.827c-1.69,1.532-3.463,3.011-5.27,4.395ZM406.866,35.918l.292-1.077c2.2.6,4.4,1.292,6.546,2.068l-.38,1.05C411.208,37.193,409.035,36.506,406.866,35.918Zm38.551,135.56c1.535-1.642,3.021-3.368,4.417-5.131l.875.693c-1.415,1.787-2.921,3.537-4.477,5.2ZM419.593,40.522l.465-1.015c2.073.949,4.131,1.995,6.118,3.11l-.546.973C423.669,42.49,421.638,41.458,419.593,40.522ZM453.816,160.87c1.247-1.872,2.432-3.818,3.521-5.785l.977.541c-1.1,1.993-2.3,3.966-3.568,5.863ZM431.4,47.141l.624-.926c1.889,1.273,3.749,2.641,5.528,4.065l-.7.872C435.095,49.747,433.26,48.4,431.4,47.141Zm28.977,101.891c.925-2.05,1.776-4.164,2.529-6.282l1.052.374c-.764,2.147-1.626,4.289-2.564,6.367ZM441.956,55.6l.767-.811C444.38,56.351,445.99,58,447.51,59.7l-.831.745C445.18,58.772,443.591,57.141,441.956,55.6Zm22.95,80.686c.577-2.177,1.07-4.4,1.464-6.612l1.1.2c-.4,2.241-.9,4.5-1.484,6.7ZM450.984,65.664l.89-.674c1.375,1.816,2.691,3.711,3.911,5.633l-.943.6C453.639,69.325,452.341,67.456,450.984,65.664Zm16.3,57.295c.21-2.238.329-4.513.353-6.763l1.116.012c-.024,2.28-.144,4.587-.357,6.856Zm-9.056-45.876.989-.518c1.056,2.016,2.041,4.1,2.928,6.205l-1.028.434c-.876-2.073-1.847-4.133-2.889-6.122Zm9.2,32.344c-.162-2.238-.42-4.5-.768-6.727l1.1-.172c.352,2.256.614,4.55.778,6.818Zm-3.936-19.883,1.061-.349c.711,2.161,1.343,4.389,1.876,6.6l-1.086.262c-.526-2.185-1.15-4.381-1.851-6.514Z" transform="translate(-236.241 -31.952)" fill="#3f3d56"/>
  <path id="パス_959" data-name="パス 959" d="M541.012,366.067c.953-.557,1.907-1.141,2.837-1.736l.6.94c-.942.6-1.91,1.2-2.876,1.76Z" transform="translate(-350.309 -212.183)" fill="#3f3d56"/>
  <path id="パス_960" data-name="パス 960" d="M27,144.2l17.1-17.1,15.482,15.481L88.96,113.205l24.1,24.554v24.1H27Z" transform="translate(-14.608 -61.248)" fill="#ff710a"/>
  <path id="パス_961" data-name="パス 961" d="M762.5,555.158V665.767H904.778V555.158Zm123.7,29.58H875.179V573.718H886.2Z" transform="translate(-470.142 -316.028)" fill="#3f3d56"/>
  <rect id="長方形_624" data-name="長方形 624" width="9.179" height="11.933" transform="translate(61.96 196)" fill="#3f3d56"/>
  <rect id="長方形_625" data-name="長方形 625" width="9.179" height="11.933" transform="translate(208.423 268.197) rotate(45)" fill="#3f3d56"/>
  <rect id="長方形_626" data-name="長方形 626" width="9.179" height="11.933" transform="translate(181.345 60.557) rotate(45)" fill="#3f3d56"/>
  <path id="パス_962" data-name="パス 962" d="M782.481,717.8c-.508,1-1.043,2-1.589,2.971l-.974-.546c.54-.962,1.068-1.948,1.569-2.931Z" transform="translate(-479.566 -403.751)" fill="#3f3d56"/>
  <path id="パス_963" data-name="パス 963" d="M594.613,621.824c-1.277,1.89-2.647,3.749-4.074,5.524l-.87-.7c1.407-1.752,2.76-3.586,4.019-5.45Zm-8.592,10.692c-1.57,1.652-3.229,3.258-4.93,4.775l-.743-.834c1.679-1.5,3.316-3.081,4.864-4.71Zm-10.24,9.125c-1.818,1.368-3.718,2.679-5.648,3.9l-.6-.944c1.9-1.2,3.779-2.5,5.573-3.845Zm-12.113,6.333.517.989c-2.022,1.058-4.11,2.044-6.2,2.93l-.435-1.028C559.614,649.99,561.673,649.017,563.668,647.973Zm-12.458,5.271.349,1.06c-2.165.712-4.385,1.343-6.6,1.873l-.26-1.086c2.186-.523,4.377-1.145,6.513-1.848Zm-13.156,3.149.169,1.1c-2.253.345-4.55.6-6.825.757l-.077-1.114c2.246-.155,4.51-.406,6.734-.746ZM460.992,524.3c-1.388,1.766-2.72,3.613-3.96,5.491l-.932-.615c1.257-1.9,2.607-3.776,4.014-5.566ZM524.55,657.326l-.015,1.116c-2.278-.031-4.584-.158-6.854-.377l.107-1.111C520.028,657.17,522.3,657.3,524.55,657.326ZM453.539,535.589c-1.079,1.971-2.09,4.013-3,6.068l-1.02-.454c.927-2.082,1.951-4.151,3.045-6.149Zm57.54,120.439-.2,1.1c-2.243-.4-4.5-.906-6.7-1.493l.287-1.078c2.173.578,4.4,1.073,6.61,1.472ZM448.038,547.95c-.743,2.123-1.407,4.3-1.974,6.478l-1.08-.281c.574-2.2,1.247-4.414,2-6.565ZM498,652.547l-.374,1.051c-2.146-.764-4.288-1.627-6.365-2.565l.459-1.017C493.772,650.942,495.884,651.793,498,652.547Zm-53.375-91.5c-.387,2.216-.686,4.474-.89,6.713l-1.112-.1c.207-2.27.51-4.559.9-6.8Zm41.045,85.935-.541.976c-1.994-1.106-3.965-2.307-5.857-3.571l.62-.928C481.761,644.7,483.705,645.89,485.672,646.98ZM443.4,574.522c-.019,2.252.057,4.529.224,6.769l-1.114.083c-.169-2.27-.245-4.578-.227-6.861Zm31.025,64.948-.694.874c-1.783-1.417-3.529-2.927-5.187-4.485l.765-.813c1.636,1.538,3.357,3.027,5.117,4.425Zm-30.019-51.451c.352,2.22.8,4.454,1.338,6.639l-1.084.266c-.543-2.215-1-4.479-1.356-6.729Zm20.166,42.189-.829.747c-1.523-1.691-3-3.469-4.378-5.284l.888-.676C461.618,626.786,463.071,628.54,464.574,630.208ZM447.63,601.162c.713,2.128,1.525,4.256,2.415,6.325l-1.026.441c-.9-2.1-1.725-4.255-2.447-6.411Zm8.751,18.282-.941.6c-1.225-1.917-2.391-3.918-3.457-5.928l.987-.523C454.021,615.579,455.172,617.552,456.38,619.444Z" transform="translate(-296.892 -298.958)" fill="#3f3d56"/>
  <path id="パス_964" data-name="パス 964" d="M494.117,507.631c-.785.776-1.564,1.579-2.317,2.387l-.817-.761c.763-.819,1.553-1.633,2.349-2.419Z" transform="translate(-323.241 -289.457)" fill="#3f3d56"/>
  <path id="パス_965" data-name="パス 965" d="M1021.255,429.7c-.105-.172-2.589-4.319-3.45-12.93-.79-7.9-.282-21.216,6.624-39.791,13.083-35.189-3.015-63.581-3.179-63.864l.794-.461a70.483,70.483,0,0,1,6.65,18.838,82.182,82.182,0,0,1-3.4,45.807c-13.061,35.129-3.351,51.758-3.251,51.923Z" transform="translate(-608.122 -184.307)" fill="#3f3d56"/>
  <circle id="楕円形_65" data-name="楕円形 65" cx="5.966" cy="5.966" r="5.966" transform="translate(402.049 114.983)" fill="#ff710a"/>
  <circle id="楕円形_66" data-name="楕円形 66" cx="5.966" cy="5.966" r="5.966" transform="translate(420.866 136.954)" fill="#3f3d56"/>
  <circle id="楕円形_67" data-name="楕円形 67" cx="5.966" cy="5.966" r="5.966" transform="translate(408.016 151.601)" fill="#ff710a"/>
  <circle id="楕円形_68" data-name="楕円形 68" cx="5.966" cy="5.966" r="5.966" transform="translate(423.62 163.96)" fill="#ff710a"/>
  <circle id="楕円形_69" data-name="楕円形 69" cx="5.966" cy="5.966" r="5.966" transform="translate(403.426 183.184)" fill="#3f3d56"/>
  <path id="パス_966" data-name="パス 966" d="M1032.375,537.86s-5.966-14.687,11.933-25.7Z" transform="translate(-615.639 -292.378)" fill="#3f3d56"/>
  <path id="パス_967" data-name="パス 967" d="M989.534,549.323S986.818,533.7,965.8,533.838Z" transform="translate(-580.137 -304.118)" fill="#3f3d56"/>
  <path id="パス_968" data-name="パス 968" d="M597.491,757.769A5.508,5.508,0,1,1,603,752.262,5.507,5.507,0,0,1,597.491,757.769Zm0-10.1a4.59,4.59,0,1,0,4.59,4.59,4.59,4.59,0,0,0-4.59-4.59Z" transform="translate(-377.886 -419.689)" fill="#2f2e41"/>
  <path id="パス_969" data-name="パス 969" d="M725.13,116.363h-9.06V107.3h9.06Zm-8.363-.7h7.667V108h-7.667Z" transform="translate(-445.022 -72.72)" fill="#3f3d56"/>
  <path id="パス_970" data-name="パス 970" d="M190.17,663.028l-6.18-6.626,6.626-6.18,6.18,6.626Zm-5.195-6.592,5.229,5.606,5.606-5.229-5.229-5.606Z" transform="translate(-157.145 -367.226)" fill="#2f2e41"/>
  <path id="パス_971" data-name="パス 971" d="M408.51,437.187H244.286V370.895h136.6Z" transform="translate(-132.168 -201.205)" fill="#efefef"/>
  <path id="パス_972" data-name="パス 972" d="M511.079,452.474H326.017V371.115h151.5l.128.311Zm-184.058-1H509.579l-32.732-79.35H327.021Z" transform="translate(-233.988 -215.968)" fill="#3f3d56"/>
  <rect id="長方形_627" data-name="長方形 627" width="81.861" height="7.533" transform="translate(139.237 180.292)" fill="#ff710a"/>
  <rect id="長方形_628" data-name="長方形 628" width="81.861" height="7.533" transform="translate(139.237 195.819)" fill="#ff710a"/>
  <rect id="長方形_629" data-name="長方形 629" width="81.861" height="7.533" transform="translate(139.237 211.346)" fill="#ff710a"/>
  <path id="パス_973" data-name="パス 973" d="M262.927,176.689H125.5V93.158H232.3l.11.3Zm-136.509-.918H261.613L231.658,94.076H126.418Z" transform="translate(-125.5 -65.067)" fill="#3f3d56"/>
  <path id="パス_974" data-name="パス 974" d="M238.243,175.871H151.5V111.158h86.743Zm-85.826-.918h84.908V112.076H152.418Z" transform="translate(-139.567 -74.806)" fill="#3f3d56"/>
  <circle id="楕円形_70" data-name="楕円形 70" cx="8.261" cy="8.261" r="8.261" transform="translate(128.509 102.621)" fill="#ff710a"/>
  <circle id="楕円形_71" data-name="楕円形 71" cx="8.261" cy="8.261" r="8.261" transform="translate(267.115 228.033)" fill="#ff710a"/>
  <circle id="楕円形_72" data-name="楕円形 72" cx="13.901" cy="13.901" r="13.901" transform="translate(320.717 95.861)" fill="#a0616a"/>
  <path id="パス_975" data-name="パス 975" d="M830.007,284.842s4.634,10.426-1.738,14.48S838.7,320.175,838.7,320.175l18.535-19.693s-9.847-6.371-8.109-16.8Z" transform="translate(-504.946 -168.482)" fill="#a0616a"/>
  <path id="パス_976" data-name="パス 976" d="M742.513,382.121l-4.055,23.169s-6.951,13.9-6.951,26.065-1.158,14.48-1.158,14.48S718.765,469,726.874,470.162s11.584-23.748,11.584-23.748,11.005-27.223,11.005-35.911l7.53-19.114Z" transform="translate(-449.309 -221.951)" fill="#a0616a"/>
  <path id="パス_977" data-name="パス 977" d="M930.268,384.645l1.158,20.273s4.055,10.426,1.158,28.961l-2.317,17.956s5.213,20.273,0,20.852-11.584-12.743-8.109-20.273v-6.371s-3.475-27.223-2.317-31.857l-4.055-22.01Z" transform="translate(-553.077 -223.321)" fill="#a0616a"/>
  <path id="パス_978" data-name="パス 978" d="M657.776,698.174l5.792,15.059,12.743-2.317L668.2,694.7Z" transform="translate(-355.883 -376.86)" fill="#a0616a"/>
  <path id="パス_979" data-name="パス 979" d="M775.619,728.773l-1.738,22.01h14.48l-.579-19.114Z" transform="translate(-418.7 -395.295)" fill="#a0616a"/>
  <path id="パス_980" data-name="パス 980" d="M760.54,470.819l-1.738,8.688s-3.475,2.9-3.475,5.792-1.158,4.055-1.158,4.055-.579,0-1.158,1.158a7.167,7.167,0,0,1-1.158,1.738S717.678,527,725.208,544.379s22.01,52.709,22.01,52.709,16.8-5.213,16.8-9.267L747.8,542.062l32.436-33.594L806.3,543.8s-5.213,61.976-1.738,62.555,22.589,4.634,23.169,2.9,3.475-78.773,2.317-81.669-17.956-37.649-17.956-37.649,2.9-3.475,1.158-4.634-4.634-12.164-4.634-12.164S763.436,465.606,760.54,470.819Z" transform="translate(-449.379 -269.402)" fill="#2f2e41"/>
  <path id="パス_981" data-name="パス 981" d="M819.5,322.28l-11.675-7.2s-6.86.25-8.6,1.988-12.164,6.371-12.164,6.371,2.317,69.506,6.951,67.189,1.158-4.054,4.634-2.317,44.6,2.317,45.179,2.317,1.158-1.158,1.158-1.158l2.317-35.332,7.53-29.54L832.537,314.34Z" transform="translate(-483.431 -185.157)" fill="#d0cde1"/>
  <path id="パス_982" data-name="パス 982" d="M776.834,332.9H772.2s-6.371,1.738-9.267,11.005-4.055,13.322-2.9,14.48,16.8,9.847,16.8,9.847Z" transform="translate(-468.569 -195.175)" fill="#d0cde1"/>
  <path id="パス_983" data-name="パス 983" d="M912.269,335.426l8.109.579s10.426,24.327,7.53,25.485-19.693,9.847-19.693,8.109S912.269,335.426,912.269,335.426Z" transform="translate(-548.98 -196.542)" fill="#d0cde1"/>
  <path id="パス_984" data-name="パス 984" d="M768.729,748.581l-4.723-1.738-10.916,14.48s-20.273,14.48-1.738,13.9c0,0,14.48-2.317,15.639-6.371,0,0,16.8-4.634,16.8-7.53s-3.86-10.616-5.116-10.811S772.2,752.636,768.729,748.581Z" transform="translate(-459.886 -419.737)" fill="#2f2e41"/>
  <path id="パス_985" data-name="パス 985" d="M910.38,794.724s-14.081-.229-13.991.175-3.964,9.672-3.385,13.147,5.792,8.109,4.634,10.426,3.475,9.267,12.743,9.847,8.109-9.847,8.109-9.847l-4.634-11.005Z" transform="translate(-540.719 -445.607)" fill="#2f2e41"/>
  <path id="パス_986" data-name="パス 986" d="M827.339,232.447a26.313,26.313,0,0,1-2.174,1.664,20.671,20.671,0,0,0-2.621,2.6l-.9,1a4.606,4.606,0,0,0-1.54,2.973c.012.425.142.837.194,1.259.2,1.673-.82,3.512.022,4.972.243.422.62.752.888,1.159a2.709,2.709,0,0,1,.428,1.764,2.165,2.165,0,0,0,1.93-1.633,16.454,16.454,0,0,0,.383-2.683,2.879,2.879,0,0,1,1.339-2.241c1.735-.85,3.727,1.36,5.579.809,1.293-.385,1.975-1.987,3.3-2.256a4.7,4.7,0,0,1,2.736.768c.879.4,2.065.583,2.687-.156.412-.489.456-1.273,1-1.6.654-.4,1.474.156,1.969.74s1.043,1.3,1.809,1.277c1.016-.028,1.794-1.381,2.758-1.06,1.088.362.588,2.1,1.248,3.042.558.793,1.727.746,2.688.615a.963.963,0,0,0,1-1.286l-.4-5.322a2.571,2.571,0,0,0-.235-1.062c-.279-.506-.858-.763-1.251-1.186-.827-.891-.788-2.452-1.816-3.1-.534-.336-1.233-.326-1.763-.669-.68-.439-.9-1.318-1.376-1.972a4.2,4.2,0,0,0-3.023-1.488c-1.151-.119-2.313.025-3.47-.013-2.352-.077-4.7-.739-7.067-.351C829.6,229.352,828.736,231.1,827.339,232.447Z" transform="translate(-501.244 -138.754)" fill="#2f2e41"/>
</svg>
