<svg xmlns="http://www.w3.org/2000/svg" width="485" height="351.55" viewBox="0 0 485 351.55">
  <g id="undraw_education_f8ru" transform="translate(0 0)">
    <path id="パス_586" data-name="パス 586" d="M565.3,584.643v84.745H352.986c-24.191,0-43.872-19.009-43.872-42.372s19.682-42.372,43.872-42.372Z" transform="translate(-256.237 -321.096)" fill="#f2f2f2"/>
    <path id="パス_587" data-name="パス 587" d="M568.082,667.691a3.261,3.261,0,0,1-3.259,3.259H346.768a44.654,44.654,0,0,1,0-89.308H564.822a3.259,3.259,0,1,1,0,6.519H346.768a38.135,38.135,0,0,0,0,76.27H564.822A3.261,3.261,0,0,1,568.082,667.691Z" transform="translate(-253.8 -320.052)" fill="#ff710a"/>
    <path id="パス_588" data-name="パス 588" d="M579.924,613.947H351.766a.652.652,0,1,1,0-1.3H579.924a.652.652,0,0,1,0,1.3Z" transform="translate(-270.858 -330.844)" fill="#ccc"/>
    <path id="パス_589" data-name="パス 589" d="M579.924,637.947H351.766a.652.652,0,1,1,0-1.3H579.924a.652.652,0,0,1,0,1.3Z" transform="translate(-270.858 -339.198)" fill="#ccc"/>
    <path id="パス_590" data-name="パス 590" d="M579.924,661.947H351.766a.652.652,0,0,1,0-1.3H579.924a.652.652,0,0,1,0,1.3Z" transform="translate(-270.858 -347.553)" fill="#ccc"/>
    <path id="パス_591" data-name="パス 591" d="M579.924,685.947H351.766a.652.652,0,1,1,0-1.3H579.924a.652.652,0,0,1,0,1.3Z" transform="translate(-270.858 -355.908)" fill="#ccc"/>
    <path id="パス_592" data-name="パス 592" d="M828.239,532.659l-53.171,65.989L609.742,465.436c-18.837-15.178-22.236-42.328-7.577-60.521s41.911-20.646,60.748-5.468Z" transform="translate(-355.083 -253.16)" fill="#f2f2f2"/>
    <path id="パス_593" data-name="パス 593" d="M777.117,599.37a3.261,3.261,0,0,1-4.583.493L602.74,463.052a44.654,44.654,0,1,1,56.034-69.542L828.568,530.321a3.259,3.259,0,0,1-4.09,5.076L654.683,398.586a38.135,38.135,0,0,0-47.854,59.39L776.624,594.788A3.261,3.261,0,0,1,777.117,599.37Z" transform="translate(-352.661 -251.118)" fill="#ccc"/>
    <path id="パス_594" data-name="パス 594" d="M840,555.409,662.341,412.258a.652.652,0,1,1,.818-1.015L840.822,554.394a.652.652,0,0,1-.818,1.015Z" transform="translate(-379.118 -260.682)" fill="#ccc"/>
    <path id="パス_595" data-name="パス 595" d="M824.946,574.1,647.283,430.946a.652.652,0,1,1,.818-1.015L825.764,573.082a.652.652,0,0,1-.818,1.015Z" transform="translate(-373.876 -267.188)" fill="#ccc"/>
    <path id="パス_596" data-name="パス 596" d="M809.888,592.786,632.225,449.635a.652.652,0,0,1,.818-1.015L810.706,591.771a.652.652,0,1,1-.818,1.015Z" transform="translate(-368.634 -273.694)" fill="#ccc"/>
    <path id="パス_597" data-name="パス 597" d="M794.83,611.474,617.167,468.323a.652.652,0,0,1,.818-1.015L795.647,610.459a.652.652,0,0,1-.818,1.015Z" transform="translate(-363.392 -280.199)" fill="#ccc"/>
    <path id="パス_598" data-name="パス 598" d="M712.348,718.947h-483.7a.652.652,0,0,1,0-1.3h483.7a.652.652,0,0,1,0,1.3Z" transform="translate(-228 -367.396)" fill="#ccc"/>
    <path id="パス_599" data-name="パス 599" d="M332.209,375.271h-7.452l-3.544-28.745h11Z" transform="translate(-111.82 -120.632)" fill="#ffb8b8"/>
    <path id="パス_600" data-name="パス 600" d="M313.649,387.355h14.373V396.4H304.6a9.049,9.049,0,0,1,9.049-9.049Z" transform="translate(-106.037 -134.845)" fill="#2f2e41"/>
    <path id="パス_601" data-name="パス 601" d="M215.414,375.271h-7.452l-3.544-28.745h11Z" transform="translate(-71.161 -120.632)" fill="#ffb8b8"/>
    <path id="パス_602" data-name="パス 602" d="M196.855,387.355h14.373V396.4H187.806a9.049,9.049,0,0,1,9.049-9.049Z" transform="translate(-65.379 -134.845)" fill="#2f2e41"/>
    <path id="パス_603" data-name="パス 603" d="M487.471,230.923v-3.259a21.023,21.023,0,0,1,21.023-21.023h0a21.023,21.023,0,0,1,21.023,21.023v3.259a15.156,15.156,0,0,1-15.156,15.156H502.627a15.156,15.156,0,0,1-15.156-15.156Z" transform="translate(-318.327 -189.506)" fill="#2f2e41"/>
    <circle id="楕円形_2" data-name="楕円形 2" cx="16.011" cy="16.011" r="16.011" transform="translate(174.157 25.672)" fill="#ffb8b8"/>
    <path id="パス_604" data-name="パス 604" d="M634.488,376.475" transform="translate(-369.506 -248.629)" fill="#ffb8b8"/>
    <path id="パス_605" data-name="パス 605" d="M385.081,327.822a6.113,6.113,0,0,1,9.309,1.093l13.725-2.6,3.612,7.956-19.434,3.394a6.146,6.146,0,0,1-7.212-9.847Z" transform="translate(-282.002 -231.111)" fill="#ffb8b8"/>
    <path id="パス_606" data-name="パス 606" d="M467.521,283.9l.18.272L445.194,299l-37.977,12.127a2.287,2.287,0,0,0-1.572,2.437l.828,7.136a2.282,2.282,0,0,0,2.745,1.968L444.959,315a12.912,12.912,0,0,0,4.805-2.116L475.05,294.9a6.5,6.5,0,0,0-7.349-10.727Z" transform="translate(-289.836 -216.123)" fill="#ccc"/>
    <path id="パス_607" data-name="パス 607" d="M511.078,484.661a2.946,2.946,0,0,1-2.7-1.761L474.216,398.48a.978.978,0,0,0-1.831.1l-27.873,82.185a2.934,2.934,0,0,1-3.834,1.885l-9.347-3.505a2.926,2.926,0,0,1-1.888-2.415c-4.2-36.631,32.464-129.092,32.835-130.022l.1-.257,33.427,7.394.07.076c13.336,14.549,24.3,106.31,26.36,124.558a2.919,2.919,0,0,1-1.937,3.094l-8.25,2.918a2.906,2.906,0,0,1-.97.167Z" transform="translate(-298.009 -238.178)" fill="#2f2e41"/>
    <path id="パス_608" data-name="パス 608" d="M499.573,331.547c-8.1,0-17.128-1.615-19.907-8.279l-.064-.153.086-.142c2.194-3.6,5.093-9.739,3.535-10.892-3.07-2.27-4.56-6-4.427-11.1a26.74,26.74,0,0,1,18.752-24.434h0a83.2,83.2,0,0,1,9.3-2.394,15.828,15.828,0,0,1,13.124,3.241,15.988,15.988,0,0,1,5.93,12.3c.115,11.819-1.705,28.281-11.025,39.582a2.9,2.9,0,0,1-1.716,1,79.674,79.674,0,0,1-13.585,1.27Z" transform="translate(-315.304 -212.9)" fill="#ccc"/>
    <path id="パス_609" data-name="パス 609" d="M505.926,354.486a6.229,6.229,0,0,1,7.613-4.344,6.13,6.13,0,0,1,.944.35l10.421-9.484,7.248,4.883-14.9,13.188a6.218,6.218,0,0,1-7.049,2.99,6.124,6.124,0,0,1-4.274-7.582Z" transform="translate(-324.67 -236.282)" fill="#ffb8b8"/>
    <path id="パス_610" data-name="パス 610" d="M528.872,334.53a2.925,2.925,0,0,1-1.855-.662l-4.11-3.358a2.933,2.933,0,0,1,.071-4.6l17.237-13.22a.98.98,0,0,0,.185-1.366L529.761,297.26a8.66,8.66,0,0,1,.579-11.156h0A8.636,8.636,0,0,1,542,285.17l.067.071,11.109,15.907a9.9,9.9,0,0,1-.235,15.766l-22.324,17.039a2.938,2.938,0,0,1-1.746.575Z" transform="translate(-330.287 -216.205)" fill="#ccc"/>
    <path id="パス_611" data-name="パス 611" d="M497.965,229.841V221.9l14.182-6.193L525.67,221.9v7.944a1.3,1.3,0,0,1-1.3,1.3h-25.1A1.3,1.3,0,0,1,497.965,229.841Z" transform="translate(-321.98 -192.662)" fill="#2f2e41"/>
    <path id="パス_612" data-name="パス 612" d="M518.442,198.545c-2.085-6.674,2.294-14.323,8.768-16.965s14.22-.8,19.683,3.57,8.852,10.9,10.648,17.66,2.137,13.8,2.468,20.789c7.954,1.461,13.365,10.9,10.61,18.5s-12.955,11.381-20,7.407-9.084-14.657-4-20.947a17.193,17.193,0,0,0-20-26.668C522.7,203.528,517.777,199.269,518.442,198.545Z" transform="translate(-328.926 -180.357)" fill="#2f2e41"/>
    <path id="パス_613" data-name="パス 613" d="M365.949,262.538a68.088,68.088,0,0,1-27.606-6.046,2.916,2.916,0,0,1-1.729-2.675v-23.74a2.937,2.937,0,0,1,2.933-2.933h52.8a2.937,2.937,0,0,1,2.933,2.933v23.74a2.916,2.916,0,0,1-1.729,2.675h0a68.088,68.088,0,0,1-27.606,6.046Z" transform="translate(-265.811 -196.644)" fill="#ff710a"/>
    <path id="パス_614" data-name="パス 614" d="M357.676,230.888a2.937,2.937,0,0,1-1.14-.229l-41.872-17.666a2.933,2.933,0,0,1,.1-5.445l41.872-15.885a2.923,2.923,0,0,1,2.093,0l41.311,15.885a2.934,2.934,0,0,1,.1,5.435L358.83,230.653a2.938,2.938,0,0,1-1.154.235Z" transform="translate(-257.545 -184.226)" fill="#ff710a"/>
    <circle id="楕円形_3" data-name="楕円形 3" cx="3.911" cy="3.911" r="3.911" transform="translate(71.781 53.641)" fill="#3f3d56"/>
    <path id="パス_615" data-name="パス 615" d="M400.6,220.048l-41.312,17.665a2.607,2.607,0,0,1-2.039,0l-41.872-17.665a2.558,2.558,0,0,1-1.247-1.1,2.605,2.605,0,0,0,1.247,3.7l41.872,17.665a2.607,2.607,0,0,0,2.039,0L400.6,222.656a2.606,2.606,0,0,0,1.235-3.7A2.56,2.56,0,0,1,400.6,220.048Z" transform="translate(-257.863 -193.794)" opacity="0.2"/>
    <path id="パス_616" data-name="パス 616" d="M344.27,251.744a.652.652,0,0,0,.652-.652V229.279l21.5-7.832a.652.652,0,0,0,.019-1.3l-21.5,7.832a1.279,1.279,0,0,0-.934.375,1.3,1.3,0,0,0-.389.929v21.813A.652.652,0,0,0,344.27,251.744Z" transform="translate(-268.249 -194.207)" fill="#3f3d56"/>
  </g>
</svg>
